<svg width="16" height="16" viewBox="0 0 16 16" fill="none" xmlns="http://www.w3.org/2000/svg">
<path d="M0.5 1C0.5 0.723858 0.723858 0.5 1 0.5H5.08579C5.351 0.5 5.60536 0.605357 5.79289 0.792893L6.20711 1.20711C6.39464 1.39464 6.649 1.5 6.91421 1.5H11C11.2761 1.5 11.5 1.72386 11.5 2V8C11.5 8.27614 11.2761 8.5 11 8.5H1C0.723858 8.5 0.5 8.27614 0.5 8V1Z" fill="var(--mw-icon-background-light-yellow, #FFF5BC)" stroke="#674C06"/>
<path d="M5.5 6.5C5.5 5.94772 5.94772 5.5 6.5 5.5H14.5C15.0523 5.5 15.5 5.94772 15.5 6.5V14.5C15.5 15.0523 15.0523 15.5 14.5 15.5H6.5C5.94772 15.5 5.5 15.0523 5.5 14.5V6.5Z" fill="var(--mw-icon-background-default-white, #FFFFFF)" stroke="var(--mw-icon-border-default-gray, #616161)"/>
<path d="M10.4999 8.5H12.4999V11.5" stroke="var(--mw-icon-glyph-disabled-gray, #888889)" stroke-linecap="square"/>
<path d="M10 10.5C10 10.2239 10.2239 10 10.5 10H13.5C13.7761 10 14 10.2239 14 10.5V13.5C14 13.7761 13.7761 14 13.5 14H10.5C10.2239 14 10 13.7761 10 13.5V10.5Z" fill="#B7312C"/>
<path d="M7 11V6L11 8.5L7 11Z" fill="var(--mw-icon-glyph-content-blue, #1656A8)"/>
</svg>
