<svg width="16" height="16" viewBox="0 0 16 16" fill="none" xmlns="http://www.w3.org/2000/svg">
<path d="M0.5 1.5C0.5 0.947716 0.947715 0.5 1.5 0.5H13.5C14.0523 0.5 14.5 0.947715 14.5 1.5V13.5C14.5 14.0523 14.0523 14.5 13.5 14.5H1.5C0.947716 14.5 0.5 14.0523 0.5 13.5V1.5Z" fill="var(--mw-icon-background-light-yellow, #FFF5BC)" stroke="var(--mw-icon-border-default-blue, #1656A7)"/>
<path d="M6 3H13V4H6V3Z" fill="var(--mw-icon-glyph-content-blue, #1656A8)"/>
<path d="M2 7H9V8H2V7Z" fill="var(--mw-icon-glyph-content-blue, #1656A8)"/>
<path d="M13 11H6V12H13V11Z" fill="var(--mw-icon-glyph-content-blue, #1656A8)"/>
<path d="M9.5 10.5C10.0523 10.5 10.5 10.9477 10.5 11.5C10.5 12.0523 10.0523 12.5 9.5 12.5C8.94772 12.5 8.5 12.0523 8.5 11.5C8.5 10.9477 8.94772 10.5 9.5 10.5ZM5.5 6.5C6.05228 6.5 6.5 6.94772 6.5 7.5C6.5 8.05228 6.05228 8.5 5.5 8.5C4.94772 8.5 4.5 8.05228 4.5 7.5C4.5 6.94772 4.94772 6.5 5.5 6.5ZM9.5 2.5C10.0523 2.5 10.5 2.94772 10.5 3.5C10.5 4.05228 10.0523 4.5 9.5 4.5C8.94772 4.5 8.5 4.05228 8.5 3.5C8.5 2.94772 8.94772 2.5 9.5 2.5Z" fill="var(--mw-icon-background-light-yellow, #FFF5BC)" stroke="var(--mw-icon-glyph-content-blue, #1656A8)"/>
</svg>
